<mxfile host="Electron" agent="Mozilla/5.0 (Windows NT 10.0; Win64; x64) AppleWebKit/537.36 (KHTML, like Gecko) draw.io/26.0.9 Chrome/128.0.6613.186 Electron/32.2.5 Safari/537.36" version="26.0.9">
  <diagram name="Pagina-1" id="ux_id9cZkUd98M9NX4mF">
    <mxGraphModel dx="1185" dy="683" grid="1" gridSize="10" guides="1" tooltips="1" connect="1" arrows="1" fold="1" page="1" pageScale="1" pageWidth="827" pageHeight="1169" math="0" shadow="0">
      <root>
        <mxCell id="0" />
        <mxCell id="1" parent="0" />
        <mxCell id="J4o4WI4mPzxwvKqOewj4-36" style="edgeStyle=orthogonalEdgeStyle;rounded=0;orthogonalLoop=1;jettySize=auto;html=1;entryX=1;entryY=0.5;entryDx=0;entryDy=0;" parent="1" source="J4o4WI4mPzxwvKqOewj4-1" target="J4o4WI4mPzxwvKqOewj4-23" edge="1">
          <mxGeometry relative="1" as="geometry" />
        </mxCell>
        <mxCell id="J4o4WI4mPzxwvKqOewj4-37" style="edgeStyle=orthogonalEdgeStyle;rounded=0;orthogonalLoop=1;jettySize=auto;html=1;entryX=0.5;entryY=0;entryDx=0;entryDy=0;" parent="1" source="J4o4WI4mPzxwvKqOewj4-1" target="J4o4WI4mPzxwvKqOewj4-24" edge="1">
          <mxGeometry relative="1" as="geometry">
            <Array as="points">
              <mxPoint x="770" y="720" />
              <mxPoint x="760" y="720" />
            </Array>
          </mxGeometry>
        </mxCell>
        <mxCell id="J4o4WI4mPzxwvKqOewj4-1" value="&lt;font style=&quot;font-size: 20px;&quot;&gt;CLU/PDM&lt;/font&gt;&lt;div&gt;&lt;span style=&quot;font-size: 20px;&quot;&gt;&lt;a href=&quot;https://shop.albi-engineering.nl/product/aim-pdm08-pdm32-module-only/&quot;&gt;[AIM PDM32]&lt;/a&gt;&lt;/span&gt;&lt;/div&gt;" style="rounded=0;whiteSpace=wrap;html=1;" parent="1" vertex="1">
          <mxGeometry x="760" y="600" width="160" height="80" as="geometry" />
        </mxCell>
        <mxCell id="J4o4WI4mPzxwvKqOewj4-2" value="TC&lt;div&gt;&lt;a href=&quot;https://racetcs.com/&quot;&gt;[RaceTCS]&lt;/a&gt;&lt;/div&gt;" style="rounded=0;whiteSpace=wrap;html=1;" parent="1" vertex="1">
          <mxGeometry x="960" y="520" width="80" height="80" as="geometry" />
        </mxCell>
        <mxCell id="J4o4WI4mPzxwvKqOewj4-3" value="ABS&lt;div&gt;&lt;a href=&quot;https://shop.albi-engineering.nl/product/motorsport-abs-universeel-new/&quot;&gt;[DeltaABS]&lt;/a&gt;&lt;/div&gt;" style="rounded=0;whiteSpace=wrap;html=1;" parent="1" vertex="1">
          <mxGeometry x="960" y="400" width="80" height="80" as="geometry" />
        </mxCell>
        <mxCell id="J4o4WI4mPzxwvKqOewj4-4" value="" style="endArrow=classic;html=1;rounded=0;exitX=0.75;exitY=0;exitDx=0;exitDy=0;entryX=0;entryY=0.5;entryDx=0;entryDy=0;" parent="1" source="J4o4WI4mPzxwvKqOewj4-1" target="J4o4WI4mPzxwvKqOewj4-3" edge="1">
          <mxGeometry width="50" height="50" relative="1" as="geometry">
            <mxPoint x="870" y="690" as="sourcePoint" />
            <mxPoint x="920" y="640" as="targetPoint" />
            <Array as="points">
              <mxPoint x="880" y="440" />
            </Array>
          </mxGeometry>
        </mxCell>
        <mxCell id="J4o4WI4mPzxwvKqOewj4-5" value="" style="endArrow=classic;html=1;rounded=0;exitX=0;exitY=0.25;exitDx=0;exitDy=0;entryX=0.622;entryY=-0.032;entryDx=0;entryDy=0;entryPerimeter=0;" parent="1" source="J4o4WI4mPzxwvKqOewj4-3" target="J4o4WI4mPzxwvKqOewj4-1" edge="1">
          <mxGeometry width="50" height="50" relative="1" as="geometry">
            <mxPoint x="870" y="690" as="sourcePoint" />
            <mxPoint x="860" y="580" as="targetPoint" />
            <Array as="points">
              <mxPoint x="860" y="420" />
            </Array>
          </mxGeometry>
        </mxCell>
        <mxCell id="J4o4WI4mPzxwvKqOewj4-6" value="" style="endArrow=classic;html=1;rounded=0;exitX=0;exitY=0.25;exitDx=0;exitDy=0;entryX=0.876;entryY=-0.011;entryDx=0;entryDy=0;entryPerimeter=0;" parent="1" source="J4o4WI4mPzxwvKqOewj4-2" target="J4o4WI4mPzxwvKqOewj4-1" edge="1">
          <mxGeometry width="50" height="50" relative="1" as="geometry">
            <mxPoint x="870" y="690" as="sourcePoint" />
            <mxPoint x="920" y="640" as="targetPoint" />
            <Array as="points">
              <mxPoint x="900" y="540" />
            </Array>
          </mxGeometry>
        </mxCell>
        <mxCell id="J4o4WI4mPzxwvKqOewj4-7" value="" style="endArrow=classic;html=1;rounded=0;entryX=0;entryY=0.5;entryDx=0;entryDy=0;exitX=0.937;exitY=-0.004;exitDx=0;exitDy=0;exitPerimeter=0;" parent="1" source="J4o4WI4mPzxwvKqOewj4-1" target="J4o4WI4mPzxwvKqOewj4-2" edge="1">
          <mxGeometry width="50" height="50" relative="1" as="geometry">
            <mxPoint x="870" y="690" as="sourcePoint" />
            <mxPoint x="920" y="640" as="targetPoint" />
            <Array as="points">
              <mxPoint x="910" y="560" />
            </Array>
          </mxGeometry>
        </mxCell>
        <mxCell id="J4o4WI4mPzxwvKqOewj4-8" value="ECU&lt;div&gt;[KMS MS-9]&lt;/div&gt;" style="rounded=0;whiteSpace=wrap;html=1;" parent="1" vertex="1">
          <mxGeometry x="680" y="400" width="80" height="80" as="geometry" />
        </mxCell>
        <mxCell id="J4o4WI4mPzxwvKqOewj4-9" value="" style="endArrow=classic;html=1;rounded=0;exitX=1;exitY=0.75;exitDx=0;exitDy=0;entryX=0.25;entryY=0;entryDx=0;entryDy=0;" parent="1" source="J4o4WI4mPzxwvKqOewj4-8" target="J4o4WI4mPzxwvKqOewj4-1" edge="1">
          <mxGeometry width="50" height="50" relative="1" as="geometry">
            <mxPoint x="780" y="610" as="sourcePoint" />
            <mxPoint x="830" y="560" as="targetPoint" />
            <Array as="points">
              <mxPoint x="800" y="460" />
            </Array>
          </mxGeometry>
        </mxCell>
        <mxCell id="J4o4WI4mPzxwvKqOewj4-10" value="BMW B48" style="rounded=0;whiteSpace=wrap;html=1;" parent="1" vertex="1">
          <mxGeometry x="680" y="320" width="80" height="40" as="geometry" />
        </mxCell>
        <mxCell id="J4o4WI4mPzxwvKqOewj4-11" value="" style="endArrow=classic;html=1;rounded=0;exitX=0.75;exitY=0;exitDx=0;exitDy=0;entryX=0.75;entryY=1;entryDx=0;entryDy=0;" parent="1" source="J4o4WI4mPzxwvKqOewj4-8" target="J4o4WI4mPzxwvKqOewj4-10" edge="1">
          <mxGeometry width="50" height="50" relative="1" as="geometry">
            <mxPoint x="780" y="610" as="sourcePoint" />
            <mxPoint x="830" y="560" as="targetPoint" />
          </mxGeometry>
        </mxCell>
        <mxCell id="J4o4WI4mPzxwvKqOewj4-12" value="" style="endArrow=classic;html=1;rounded=0;exitX=0.25;exitY=1;exitDx=0;exitDy=0;entryX=0.25;entryY=0;entryDx=0;entryDy=0;" parent="1" source="J4o4WI4mPzxwvKqOewj4-10" target="J4o4WI4mPzxwvKqOewj4-8" edge="1">
          <mxGeometry width="50" height="50" relative="1" as="geometry">
            <mxPoint x="780" y="610" as="sourcePoint" />
            <mxPoint x="830" y="560" as="targetPoint" />
          </mxGeometry>
        </mxCell>
        <mxCell id="J4o4WI4mPzxwvKqOewj4-13" value="Lambda" style="endArrow=classic;html=1;rounded=0;entryX=0;entryY=0.25;entryDx=0;entryDy=0;" parent="1" target="J4o4WI4mPzxwvKqOewj4-8" edge="1">
          <mxGeometry width="50" height="50" relative="1" as="geometry">
            <mxPoint x="600" y="420" as="sourcePoint" />
            <mxPoint x="830" y="560" as="targetPoint" />
          </mxGeometry>
        </mxCell>
        <mxCell id="J4o4WI4mPzxwvKqOewj4-14" value="PPS" style="endArrow=classic;html=1;rounded=0;entryX=0;entryY=0.5;entryDx=0;entryDy=0;" parent="1" target="J4o4WI4mPzxwvKqOewj4-8" edge="1">
          <mxGeometry width="50" height="50" relative="1" as="geometry">
            <mxPoint x="600" y="440" as="sourcePoint" />
            <mxPoint x="830" y="560" as="targetPoint" />
          </mxGeometry>
        </mxCell>
        <mxCell id="J4o4WI4mPzxwvKqOewj4-15" value="TCU&lt;div&gt;&lt;a href=&quot;https://turbolamik.eu/&quot;&gt;[Turbo Lamik]&lt;/a&gt;&lt;/div&gt;" style="rounded=0;whiteSpace=wrap;html=1;" parent="1" vertex="1">
          <mxGeometry x="800" y="270" width="80" height="90" as="geometry" />
        </mxCell>
        <mxCell id="J4o4WI4mPzxwvKqOewj4-16" value="" style="endArrow=classic;html=1;rounded=0;exitX=1;exitY=0.25;exitDx=0;exitDy=0;entryX=0.25;entryY=1;entryDx=0;entryDy=0;" parent="1" source="J4o4WI4mPzxwvKqOewj4-8" target="J4o4WI4mPzxwvKqOewj4-15" edge="1">
          <mxGeometry width="50" height="50" relative="1" as="geometry">
            <mxPoint x="810" y="550" as="sourcePoint" />
            <mxPoint x="860" y="500" as="targetPoint" />
            <Array as="points">
              <mxPoint x="820" y="420" />
            </Array>
          </mxGeometry>
        </mxCell>
        <mxCell id="J4o4WI4mPzxwvKqOewj4-17" value="" style="endArrow=classic;html=1;rounded=0;exitX=0.5;exitY=1;exitDx=0;exitDy=0;entryX=1;entryY=0.5;entryDx=0;entryDy=0;" parent="1" source="J4o4WI4mPzxwvKqOewj4-15" target="J4o4WI4mPzxwvKqOewj4-8" edge="1">
          <mxGeometry width="50" height="50" relative="1" as="geometry">
            <mxPoint x="810" y="550" as="sourcePoint" />
            <mxPoint x="860" y="500" as="targetPoint" />
            <Array as="points">
              <mxPoint x="840" y="440" />
            </Array>
          </mxGeometry>
        </mxCell>
        <mxCell id="J4o4WI4mPzxwvKqOewj4-18" value="ZF 8HP45" style="rounded=0;whiteSpace=wrap;html=1;" parent="1" vertex="1">
          <mxGeometry x="800" y="200" width="80" height="40" as="geometry" />
        </mxCell>
        <mxCell id="J4o4WI4mPzxwvKqOewj4-19" value="" style="endArrow=classic;html=1;rounded=0;exitX=0.75;exitY=0;exitDx=0;exitDy=0;entryX=0.75;entryY=1;entryDx=0;entryDy=0;" parent="1" source="J4o4WI4mPzxwvKqOewj4-15" target="J4o4WI4mPzxwvKqOewj4-18" edge="1">
          <mxGeometry width="50" height="50" relative="1" as="geometry">
            <mxPoint x="810" y="510" as="sourcePoint" />
            <mxPoint x="860" y="460" as="targetPoint" />
          </mxGeometry>
        </mxCell>
        <mxCell id="J4o4WI4mPzxwvKqOewj4-20" value="" style="endArrow=classic;html=1;rounded=0;exitX=0.25;exitY=1;exitDx=0;exitDy=0;entryX=0.25;entryY=0;entryDx=0;entryDy=0;" parent="1" source="J4o4WI4mPzxwvKqOewj4-18" target="J4o4WI4mPzxwvKqOewj4-15" edge="1">
          <mxGeometry width="50" height="50" relative="1" as="geometry">
            <mxPoint x="810" y="510" as="sourcePoint" />
            <mxPoint x="860" y="460" as="targetPoint" />
          </mxGeometry>
        </mxCell>
        <mxCell id="J4o4WI4mPzxwvKqOewj4-21" value="" style="endArrow=classic;html=1;rounded=0;exitX=0.75;exitY=1;exitDx=0;exitDy=0;entryX=0.5;entryY=0;entryDx=0;entryDy=0;" parent="1" source="J4o4WI4mPzxwvKqOewj4-15" target="J4o4WI4mPzxwvKqOewj4-1" edge="1">
          <mxGeometry width="50" height="50" relative="1" as="geometry">
            <mxPoint x="810" y="510" as="sourcePoint" />
            <mxPoint x="860" y="460" as="targetPoint" />
            <Array as="points">
              <mxPoint x="860" y="400" />
              <mxPoint x="850" y="400" />
              <mxPoint x="850" y="480" />
              <mxPoint x="840" y="480" />
            </Array>
          </mxGeometry>
        </mxCell>
        <mxCell id="J4o4WI4mPzxwvKqOewj4-33" style="edgeStyle=orthogonalEdgeStyle;rounded=0;orthogonalLoop=1;jettySize=auto;html=1;entryX=0;entryY=0.25;entryDx=0;entryDy=0;" parent="1" source="J4o4WI4mPzxwvKqOewj4-22" target="J4o4WI4mPzxwvKqOewj4-1" edge="1">
          <mxGeometry relative="1" as="geometry" />
        </mxCell>
        <mxCell id="J4o4WI4mPzxwvKqOewj4-22" value="Stuur&lt;div&gt;&lt;a href=&quot;https://shop.albi-engineering.nl/product/aim-gt32-steering-wheels-new/&quot;&gt;[AIM GT32]&lt;/a&gt;&lt;/div&gt;&lt;div&gt;&lt;a href=&quot;https://fanatec.com/eu-en/steering-wheels/podium-steering-wheel-bmw-m4-gt3&quot;&gt;[FANATEC]&lt;/a&gt;&lt;/div&gt;" style="rounded=0;whiteSpace=wrap;html=1;" parent="1" vertex="1">
          <mxGeometry x="600" y="520" width="80" height="80" as="geometry" />
        </mxCell>
        <mxCell id="J4o4WI4mPzxwvKqOewj4-23" value="Center Dash&lt;div&gt;&lt;a href=&quot;https://shop.albi-engineering.nl/product/aim-mxs-strada-light-dash-new/&quot;&gt;[AIM]&lt;/a&gt;&lt;/div&gt;" style="rounded=0;whiteSpace=wrap;html=1;" parent="1" vertex="1">
          <mxGeometry x="600" y="640" width="80" height="80" as="geometry" />
        </mxCell>
        <mxCell id="J4o4WI4mPzxwvKqOewj4-24" value="Dash&lt;div&gt;&lt;a href=&quot;https://shop.albi-engineering.nl/product/aim-mxp-6-strada/&quot;&gt;[AIM]&lt;/a&gt;&lt;/div&gt;" style="whiteSpace=wrap;html=1;aspect=fixed;" parent="1" vertex="1">
          <mxGeometry x="720" y="760" width="80" height="80" as="geometry" />
        </mxCell>
        <mxCell id="J4o4WI4mPzxwvKqOewj4-25" value="&lt;div&gt;Smartycam&lt;/div&gt;&lt;div&gt;&lt;a href=&quot;https://shop.albi-engineering.nl/product/aim-smartycam-3-dual-new/&quot;&gt;[AIM]&lt;/a&gt;&lt;/div&gt;" style="whiteSpace=wrap;html=1;aspect=fixed;" parent="1" vertex="1">
          <mxGeometry x="840" y="760" width="80" height="80" as="geometry" />
        </mxCell>
        <mxCell id="J4o4WI4mPzxwvKqOewj4-26" value="" style="endArrow=classic;html=1;rounded=0;entryX=0.5;entryY=0;entryDx=0;entryDy=0;exitX=0.75;exitY=1;exitDx=0;exitDy=0;" parent="1" source="J4o4WI4mPzxwvKqOewj4-1" target="J4o4WI4mPzxwvKqOewj4-25" edge="1">
          <mxGeometry width="50" height="50" relative="1" as="geometry">
            <mxPoint x="900" y="700" as="sourcePoint" />
            <mxPoint x="810" y="590" as="targetPoint" />
          </mxGeometry>
        </mxCell>
        <mxCell id="J4o4WI4mPzxwvKqOewj4-28" value="SD card" style="rounded=0;whiteSpace=wrap;html=1;" parent="1" vertex="1">
          <mxGeometry x="960" y="760" width="80" height="40" as="geometry" />
        </mxCell>
        <mxCell id="J4o4WI4mPzxwvKqOewj4-29" value="" style="endArrow=classic;html=1;rounded=0;exitX=1;exitY=0.25;exitDx=0;exitDy=0;entryX=0;entryY=0.5;entryDx=0;entryDy=0;" parent="1" source="J4o4WI4mPzxwvKqOewj4-25" target="J4o4WI4mPzxwvKqOewj4-28" edge="1">
          <mxGeometry width="50" height="50" relative="1" as="geometry">
            <mxPoint x="870" y="650" as="sourcePoint" />
            <mxPoint x="920" y="600" as="targetPoint" />
          </mxGeometry>
        </mxCell>
        <mxCell id="J4o4WI4mPzxwvKqOewj4-31" value="" style="edgeStyle=orthogonalEdgeStyle;rounded=0;orthogonalLoop=1;jettySize=auto;html=1;" parent="1" source="J4o4WI4mPzxwvKqOewj4-30" target="J4o4WI4mPzxwvKqOewj4-25" edge="1">
          <mxGeometry relative="1" as="geometry" />
        </mxCell>
        <mxCell id="J4o4WI4mPzxwvKqOewj4-30" value="Front/Rear&lt;div&gt;Camera&#39;s&lt;/div&gt;" style="rounded=0;whiteSpace=wrap;html=1;" parent="1" vertex="1">
          <mxGeometry x="840" y="880" width="80" height="40" as="geometry" />
        </mxCell>
        <mxCell id="J4o4WI4mPzxwvKqOewj4-35" value="Live&lt;div&gt;feed&lt;/div&gt;" style="endArrow=classic;html=1;rounded=0;exitX=0.25;exitY=0;exitDx=0;exitDy=0;" parent="1" source="J4o4WI4mPzxwvKqOewj4-25" edge="1">
          <mxGeometry width="50" height="50" relative="1" as="geometry">
            <mxPoint x="800" y="700" as="sourcePoint" />
            <mxPoint x="860" y="680" as="targetPoint" />
          </mxGeometry>
        </mxCell>
        <mxCell id="J4o4WI4mPzxwvKqOewj4-38" value="Keypad&lt;div&gt;&lt;a href=&quot;https://shop.albi-engineering.nl/product/aim-keypads-voor-pdm/&quot;&gt;[AIM]&lt;/a&gt;&lt;/div&gt;" style="rounded=0;whiteSpace=wrap;html=1;" parent="1" vertex="1">
          <mxGeometry x="600" y="760" width="80" height="80" as="geometry" />
        </mxCell>
        <mxCell id="J4o4WI4mPzxwvKqOewj4-40" value="Brake press." style="endArrow=classic;html=1;rounded=0;entryX=0.5;entryY=0;entryDx=0;entryDy=0;" parent="1" target="J4o4WI4mPzxwvKqOewj4-3" edge="1">
          <mxGeometry width="50" height="50" relative="1" as="geometry">
            <mxPoint x="1000" y="320" as="sourcePoint" />
            <mxPoint x="870" y="550" as="targetPoint" />
          </mxGeometry>
        </mxCell>
        <mxCell id="J4o4WI4mPzxwvKqOewj4-41" value="Wheel speed" style="endArrow=classic;html=1;rounded=0;entryX=1;entryY=0.5;entryDx=0;entryDy=0;" parent="1" target="J4o4WI4mPzxwvKqOewj4-2" edge="1">
          <mxGeometry width="50" height="50" relative="1" as="geometry">
            <mxPoint x="1080" y="360" as="sourcePoint" />
            <mxPoint x="1060" y="590" as="targetPoint" />
            <Array as="points">
              <mxPoint x="1080" y="560" />
            </Array>
          </mxGeometry>
        </mxCell>
        <mxCell id="J4o4WI4mPzxwvKqOewj4-42" value="" style="endArrow=classic;html=1;rounded=0;entryX=1;entryY=0.5;entryDx=0;entryDy=0;" parent="1" target="J4o4WI4mPzxwvKqOewj4-3" edge="1">
          <mxGeometry width="50" height="50" relative="1" as="geometry">
            <mxPoint x="1080" y="440" as="sourcePoint" />
            <mxPoint x="1060" y="590" as="targetPoint" />
          </mxGeometry>
        </mxCell>
        <mxCell id="J4o4WI4mPzxwvKqOewj4-43" value="Yaw + x - y acc." style="endArrow=classic;html=1;rounded=0;entryX=1;entryY=0.75;entryDx=0;entryDy=0;" parent="1" target="J4o4WI4mPzxwvKqOewj4-2" edge="1">
          <mxGeometry width="50" height="50" relative="1" as="geometry">
            <mxPoint x="1160" y="580" as="sourcePoint" />
            <mxPoint x="1060" y="590" as="targetPoint" />
            <mxPoint as="offset" />
          </mxGeometry>
        </mxCell>
        <mxCell id="7BR2irWsbIf1sunRIgaI-5" value="Chassis elektronics" style="endArrow=classic;html=1;rounded=0;exitX=1;exitY=0.25;exitDx=0;exitDy=0;" edge="1" parent="1">
          <mxGeometry width="50" height="50" relative="1" as="geometry">
            <mxPoint x="920" y="640" as="sourcePoint" />
            <mxPoint x="1040" y="640" as="targetPoint" />
            <mxPoint as="offset" />
          </mxGeometry>
        </mxCell>
        <mxCell id="7BR2irWsbIf1sunRIgaI-7" value="Sensors" style="endArrow=classic;html=1;rounded=0;entryX=1;entryY=0.5;entryDx=0;entryDy=0;" edge="1" parent="1">
          <mxGeometry width="50" height="50" relative="1" as="geometry">
            <mxPoint x="1040" y="660" as="sourcePoint" />
            <mxPoint x="920" y="660" as="targetPoint" />
          </mxGeometry>
        </mxCell>
        <mxCell id="7BR2irWsbIf1sunRIgaI-8" value="" style="endArrow=classic;html=1;rounded=0;exitX=1;exitY=0.25;exitDx=0;exitDy=0;entryX=0;entryY=0.75;entryDx=0;entryDy=0;" edge="1" parent="1" source="J4o4WI4mPzxwvKqOewj4-38" target="J4o4WI4mPzxwvKqOewj4-1">
          <mxGeometry width="50" height="50" relative="1" as="geometry">
            <mxPoint x="830" y="630" as="sourcePoint" />
            <mxPoint x="880" y="580" as="targetPoint" />
            <Array as="points">
              <mxPoint x="700" y="780" />
              <mxPoint x="700" y="720" />
              <mxPoint x="730" y="720" />
              <mxPoint x="730" y="660" />
            </Array>
          </mxGeometry>
        </mxCell>
      </root>
    </mxGraphModel>
  </diagram>
</mxfile>
